<svg width="67" height="78" viewBox="0 0 67 78" fill="none" xmlns="http://www.w3.org/2000/svg">
<path d="M25.1279 78C21.7434 78 18.8178 77.4539 16.3512 76.3617C13.9419 75.3241 12.1062 73.7677 10.8442 71.6926C9.58217 69.672 9.03721 67.2418 9.2093 64.4021L10.0698 50.9681C10.2419 48.0738 9.78294 45.9986 8.69302 44.7426C7.6031 43.4319 5.1938 42.7766 1.46512 42.7766H0.5V36.2234H1.46512C5.1938 36.2234 7.6031 35.5954 8.69302 34.3394C9.78294 33.0287 10.2419 30.9262 10.0698 28.0319L9.2093 14.5979C9.03721 11.7035 9.58217 9.2461 10.8442 7.22553C12.1062 5.20497 13.9419 3.67589 16.3512 2.6383C18.8178 1.5461 21.7434 1 25.1279 1H29V7.55319H25.1279C22.4318 7.55319 20.3667 8.1539 18.9326 9.35532C17.4984 10.5021 16.8388 12.2496 16.9535 14.5979L17.814 28.0319C18.0434 31.5816 17.1543 34.4213 15.1465 36.5511C13.1388 38.6262 10.2992 39.6638 6.62791 39.6638V39.2543C10.2419 39.2543 13.0527 40.3191 15.0605 42.4489C17.1256 44.5787 18.0434 47.4184 17.814 50.9681L16.9535 64.4021C16.8388 66.7504 17.4984 68.4979 18.9326 69.6447C20.3667 70.8461 22.4318 71.4468 25.1279 71.4468H29V78H25.1279Z" fill="url(#paint0_linear_1_7)"/>
<path d="M32.7413 77.9507H44.5C49.0173 77.9507 52.6293 76.1711 55.9147 74.46C59.2 72.6804 61.7324 70.1822 63.512 66.9653C65.2915 63.68 66.1813 59.8471 66.1813 55.4667V37.808H41.7467V46.2267H56.9413V55.4667C56.9413 59.7102 55.812 62.9956 53.5533 65.3227L53.4933 65.3845C50.9398 68.0155 49.9768 69.0077 47 70C41 72 32.7413 71 32.7413 71V77.9507Z" fill="url(#paint1_linear_1_7)"/>
<path d="M44.2107 0.830669H36.5C36.1136 1.03191 31.8665 0.608608 31.5 0.830678V7.5H44.2107C48.2489 7.5 51.3631 9.5062 53.5533 11.8333C55.812 14.092 56.9413 17.3431 56.9413 21.5866H66.1813C66.1813 17.1378 65.2915 13.3049 63.512 10.088C61.7324 6.87109 59.2 5.21111 55.9147 3.5C52.6293 1.72045 48.728 0.830669 44.2107 0.830669Z" fill="url(#paint2_linear_1_7)"/>
<defs>
<linearGradient id="paint0_linear_1_7" x1="-53" y1="60" x2="91" y2="57.5" gradientUnits="userSpaceOnUse">
<stop offset="0.248845" stop-color="#4CB5FB"/>
<stop offset="1" stop-color="#3F7192"/>
</linearGradient>
<linearGradient id="paint1_linear_1_7" x1="-84" y1="57.5" x2="70" y2="56.5" gradientUnits="userSpaceOnUse">
<stop offset="0.749047" stop-color="#48A1DC"/>
<stop offset="1" stop-color="#3F7192"/>
</linearGradient>
<linearGradient id="paint2_linear_1_7" x1="-84" y1="57.5" x2="70" y2="56.5" gradientUnits="userSpaceOnUse">
<stop offset="0.749047" stop-color="#48A1DC"/>
<stop offset="1" stop-color="#3F7192"/>
</linearGradient>
</defs>
</svg>
